<?xml version="1.0" encoding="UTF-8"?>
<svg id="Layer_1" xmlns="http://www.w3.org/2000/svg" version="1.1" viewBox="0 0 2669.21 427.53">
  <!-- Generator: Adobe Illustrator 30.1.0, SVG Export Plug-In . SVG Version: 2.1.1 Build 136)  -->
  <defs>
    <style>
      .st0 {
        fill: #11284b;
      }
    </style>
  </defs>
  <g>
    <path class="st0" d="M208.77,294.81l39.27-53.85h42.07c8.97,0,19.63,0,25.52.56-2.8-3.08-8.98-11.78-12.9-17.67l-31.41-45.72-83.86,116.68h-76.86l120.04-167.16c8.98-12.62,21.6-23.84,41.79-23.84s32.26,10.38,41.51,23.84l116.68,167.16h-221.85Z"/>
    <path class="st0" d="M452.22,294.81V107.17h64.79v187.64h-64.79Z"/>
    <path class="st0" d="M662.01,294.81c-65.91,0-114.43-41.23-114.43-95.64s48.52-92,114.43-92h134.63l-41.51,54.69h-93.12c-30.01,0-49.36,9.54-49.36,37.3s19.35,41.79,49.36,41.79h134.63l-41.51,53.85h-93.12Z"/>
  </g>
  <g>
    <path class="st0" d="M992.81,230.35h-9.2l-8.83-15.73h-43.33l-8.74,15.73h-8.55l33.94-62.09h10.03l34.68,62.09ZM934.58,208.09h37.16l-18.77-32.93-18.39,32.93Z"/>
    <path class="st0" d="M1010.1,230.35h-8v-64.11h8v64.11Z"/>
    <path class="st0" d="M1087.09,207.26h-55.65c1.01,12.42,11.77,18.58,25.48,18.58,11.22,0,19.96-4.42,21.98-10.67h8.19c-2.3,9.11-15.18,16.28-29.99,16.28-18.95,0-33.12-8.74-33.12-26.12s14.17-26.22,32.93-26.22,30.17,14.35,30.17,26.03v2.12h.01ZM1078.99,202.29v-.37c0-7.54-8.92-17.11-22.17-17.11s-23.92,5.34-25.2,17.48h47.37Z"/>
    <path class="st0" d="M1120.2,204.13l-27.69-23.92h10.12l22.63,20.15,22.54-20.15h9.47l-27.32,24.19,29.71,25.94h-10.3l-24.56-21.89-24.1,21.89h-10.03l29.53-26.21Z"/>
    <path class="st0" d="M1224.69,220.78c0,2.3,1.75,4.23,4.51,4.23,1.29,0,2.76-.55,3.86-1.47l.28,5.43c-1.56,1.56-4.14,2.48-6.44,2.48-4.6,0-7.91-2.58-9.01-6.07-4.78,2.76-16.47,6.07-28.98,6.07-17.2,0-25.76-6.07-25.76-17.66,0-13.89,15.55-17.11,30.26-17.11,9.47,0,20.05,2.94,24.01,4.88-.18-10.03-7.27-16.37-26.03-16.37-8.92,0-18.86,1.84-24.1,4.78l-2.21-5.34c5.61-3.77,16.37-5.52,26.86-5.52,22.54,0,32.75,7.63,32.75,23.55v18.12h0ZM1217.24,206.98c-3.13-2.3-14.17-4.78-23.46-4.78-13.71,0-23.27,3.13-23.27,11.68,0,8.09,6.9,11.87,19.78,11.87,10.3,0,22.9-2.85,26.95-4.97v-13.8Z"/>
    <path class="st0" d="M1305.08,230.35h-8v-21.16c0-19.59-11.77-23.82-24.56-23.82-8.37,0-14.72,2.58-20.42,6.99v37.99h-8v-50.13h7.54v5.89c5.43-4.05,12.69-6.99,22.17-6.99,15.09,0,31.28,4.88,31.28,29.9v21.33h-.01Z"/>
    <path class="st0" d="M1373.79,166.23h7.73v64.11h-7.54v-6.07c-3.96,3.5-12.88,7.17-23.09,7.17-16.37,0-33.02-7.91-33.02-26.22,0-20.05,17.66-25.94,31.09-25.94,10.95,0,19.5,3.04,24.84,7.45v-20.5h0ZM1352.64,225.38c10.49,0,18.86-3.59,21.62-9.84v-19.23c-3.04-7.17-11.87-10.95-22.72-10.95-12.23,0-26.03,5.43-26.03,19.96-.01,14.08,13.42,20.06,27.13,20.06Z"/>
    <path class="st0" d="M1458.51,207.26h-55.65c1.01,12.42,11.77,18.58,25.48,18.58,11.22,0,19.96-4.42,21.98-10.67h8.19c-2.3,9.11-15.18,16.28-29.99,16.28-18.95,0-33.12-8.74-33.12-26.12s14.17-26.22,32.93-26.22,30.17,14.35,30.17,26.03v2.12h.01ZM1450.41,202.29v-.37c0-7.54-8.92-17.11-22.17-17.11s-23.92,5.34-25.2,17.48h47.37Z"/>
    <path class="st0" d="M1507.44,186.47c-12.69.09-24.47,1.66-27.23,11.22v32.66h-8v-50.13h7.45v8.46c4.69-7.73,13.98-9.57,27.78-9.57v7.36Z"/>
    <path class="st0" d="M1552.41,230.35h-7.91v-62.09h7.91v62.09Z"/>
    <path class="st0" d="M1630.33,230.35h-8v-21.16c0-19.59-11.77-23.82-24.56-23.82-8.37,0-14.72,2.58-20.42,6.99v37.99h-8v-50.13h7.54v5.89c5.43-4.05,12.69-6.99,22.17-6.99,15.09,0,31.28,4.88,31.28,29.9v21.33h-.01Z"/>
    <path class="st0" d="M1706.58,230.35h-8v-21.16c0-19.59-11.77-23.82-24.56-23.82-8.37,0-14.72,2.58-20.42,6.99v37.99h-8v-50.13h7.54v5.89c5.43-4.05,12.69-6.99,22.17-6.99,15.09,0,31.28,4.88,31.28,29.9v21.33h-.01Z"/>
    <path class="st0" d="M1753.21,231.45c-18.67,0-33.39-8.74-33.39-26.22s14.72-26.12,33.39-26.12,33.39,8.74,33.39,26.12-14.62,26.22-33.39,26.22ZM1753.12,185.18c-14.17,0-25.94,6.44-25.94,20.05s11.77,20.14,25.94,20.14,25.94-6.44,25.94-20.14c0-13.61-11.59-20.05-25.94-20.05Z"/>
    <path class="st0" d="M1828.73,230.35h-8.09l-30.08-50.13h8.46l25.94,42.5,25.85-42.5h7.73l-29.81,50.13Z"/>
    <path class="st0" d="M1924.48,220.78c0,2.3,1.75,4.23,4.51,4.23,1.29,0,2.76-.55,3.86-1.47l.28,5.43c-1.56,1.56-4.14,2.48-6.44,2.48-4.6,0-7.91-2.58-9.01-6.07-4.78,2.76-16.47,6.07-28.98,6.07-17.2,0-25.76-6.07-25.76-17.66,0-13.89,15.55-17.11,30.26-17.11,9.47,0,20.05,2.94,24.01,4.88-.18-10.03-7.27-16.37-26.03-16.37-8.92,0-18.86,1.84-24.1,4.78l-2.21-5.34c5.61-3.77,16.37-5.52,26.86-5.52,22.54,0,32.75,7.63,32.75,23.55v18.12h0ZM1917.03,206.98c-3.13-2.3-14.17-4.78-23.46-4.78-13.71,0-23.27,3.13-23.27,11.68,0,8.09,6.9,11.87,19.78,11.87,10.3,0,22.9-2.85,26.95-4.97v-13.8Z"/>
    <path class="st0" d="M1951.98,180.22h15.91v5.61h-15.91v28.15c0,8.55,3.22,10.49,8.46,10.49,3.4,0,6.81-1.01,8.09-2.67v6.26c-1.1,1.84-4.97,3.4-9.47,3.4-10.85,0-14.63-5.8-14.63-17.29v-28.33h-6.81v-5.61h6.81v-10.3l7.54-2.58v12.87h.01Z"/>
    <path class="st0" d="M1985.09,174.61c-2.58,0-4.6-1.66-4.6-3.86s2.02-3.86,4.6-3.86,4.78,1.75,4.78,3.86c.01,2.2-2.11,3.86-4.78,3.86ZM1989.14,230.35h-7.91v-50.13h7.91v50.13Z"/>
    <path class="st0" d="M2037.71,231.45c-18.67,0-33.39-8.74-33.39-26.22s14.72-26.12,33.39-26.12,33.39,8.74,33.39,26.12c0,17.48-14.63,26.22-33.39,26.22ZM2037.62,185.18c-14.17,0-25.94,6.44-25.94,20.05s11.77,20.14,25.94,20.14,25.94-6.44,25.94-20.14-11.59-20.05-25.94-20.05Z"/>
    <path class="st0" d="M2145.88,230.35h-8v-21.16c0-19.59-11.77-23.82-24.56-23.82-8.37,0-14.72,2.58-20.42,6.99v37.99h-8v-50.13h7.54v5.89c5.43-4.05,12.69-6.99,22.17-6.99,15.09,0,31.28,4.88,31.28,29.9v21.33h-.01Z"/>
    <path class="st0" d="M2249.91,188.22c-3.5-8.46-13.71-14.9-26.58-14.9-17.02,0-29.71,9.66-29.71,25.94s11.96,26.03,29.44,26.03c14.07,0,22.63-5.61,26.49-14.35l6.9,3.13c-4.97,11.68-16.19,18.31-34.03,18.31-20.7,0-37.07-12.05-37.07-33.12s17.39-33.02,37.99-33.02c16.1,0,28.79,8.19,33.48,18.4l-6.91,3.58Z"/>
    <path class="st0" d="M2330.85,207.26h-55.65c1.01,12.42,11.77,18.58,25.48,18.58,11.22,0,19.96-4.42,21.98-10.67h8.19c-2.3,9.11-15.18,16.28-29.99,16.28-18.95,0-33.11-8.74-33.11-26.12s14.17-26.22,32.93-26.22,30.17,14.35,30.17,26.03v2.12h0ZM2322.76,202.29v-.37c0-7.54-8.92-17.11-22.17-17.11s-23.92,5.34-25.2,17.48h47.37Z"/>
    <path class="st0" d="M2405.54,230.35h-8v-21.16c0-19.59-11.77-23.82-24.56-23.82-8.37,0-14.72,2.58-20.42,6.99v37.99h-8v-50.13h7.54v5.89c5.43-4.05,12.69-6.99,22.17-6.99,15.09,0,31.28,4.88,31.28,29.9v21.33h-.01Z"/>
    <path class="st0" d="M2428.9,180.22h15.91v5.61h-15.91v28.15c0,8.55,3.22,10.49,8.46,10.49,3.4,0,6.81-1.01,8.09-2.67v6.26c-1.1,1.84-4.97,3.4-9.47,3.4-10.85,0-14.63-5.8-14.63-17.29v-28.33h-6.81v-5.61h6.81v-10.3l7.54-2.58v12.87h0Z"/>
    <path class="st0" d="M2492.09,186.47c-12.69.09-24.47,1.66-27.23,11.22v32.66h-8v-50.13h7.45v8.46c4.69-7.73,13.98-9.57,27.78-9.57v7.36Z"/>
    <path class="st0" d="M2561.91,207.26h-55.65c1.01,12.42,11.77,18.58,25.48,18.58,11.22,0,19.96-4.42,21.98-10.67h8.19c-2.3,9.11-15.18,16.28-29.99,16.28-18.95,0-33.11-8.74-33.11-26.12s14.17-26.22,32.93-26.22,30.17,14.35,30.17,26.03v2.12h0ZM2553.81,202.29v-.37c0-7.54-8.92-17.11-22.17-17.11s-23.92,5.34-25.2,17.48h47.37Z"/>
  </g>
</svg>