<?xml version="1.0" encoding="utf-8"?>
<!-- Generator: Adobe Illustrator 28.0.0, SVG Export Plug-In . SVG Version: 6.00 Build 0)  -->
<svg version="1.1" id="Layer_1" xmlns="http://www.w3.org/2000/svg" xmlns:xlink="http://www.w3.org/1999/xlink" x="0px" y="0px"
	 viewBox="0 0 2662.59 427.53" style="enable-background:new 0 0 2662.59 427.53;" xml:space="preserve">
<style type="text/css">
	.st0{fill:#11284B;}
	.st1{fill:#FFFFFF;}
</style>
<rect x="-46.4" y="-35.8" class="st0" width="2740.97" height="529.66"/>
<g>
	<path class="st1" d="M208.77,319.1l39.27-53.85h42.07c8.97,0,19.63,0,25.52,0.56c-2.8-3.08-8.98-11.78-12.9-17.67l-31.41-45.72
		L187.45,319.1H110.6l120.04-167.16c8.98-12.62,21.6-23.84,41.79-23.84c19.63,0,32.26,10.38,41.51,23.84L430.62,319.1H208.77z"/>
	<path class="st1" d="M452.22,319.1V131.46h64.79V319.1H452.22z"/>
	<path class="st1" d="M662.01,319.1c-65.91,0-114.43-41.23-114.43-95.64c0-54.97,48.52-92,114.43-92h134.63l-41.51,54.69h-93.12
		c-30.01,0-49.36,9.54-49.36,37.3c0,28.05,19.35,41.79,49.36,41.79h134.63l-41.51,53.85H662.01z"/>
</g>
<g>
	<path class="st1" d="M983.32,254.64h-9.2l-8.83-15.73h-43.33l-8.74,15.73h-8.55l33.94-62.09h10.03L983.32,254.64z M925.09,232.38
		h37.16l-18.77-32.93L925.09,232.38z"/>
	<path class="st1" d="M1000.61,254.64h-8v-64.11h8V254.64z"/>
	<path class="st1" d="M1077.6,231.55h-55.65c1.01,12.42,11.77,18.58,25.48,18.58c11.22,0,19.96-4.42,21.98-10.67h8.19
		c-2.3,9.11-15.18,16.28-29.99,16.28c-18.95,0-33.12-8.74-33.12-26.12c0-17.48,14.17-26.22,32.93-26.22
		c19.5,0,30.17,14.35,30.17,26.03V231.55z M1069.51,226.58v-0.37c0-7.54-8.92-17.11-22.17-17.11c-13.43,0-23.92,5.34-25.2,17.48
		H1069.51z"/>
	<path class="st1" d="M1110.71,228.42l-27.69-23.92h10.12l22.63,20.15l22.54-20.15h9.47l-27.32,24.19l29.71,25.94h-10.3
		l-24.56-21.89l-24.1,21.89h-10.03L1110.71,228.42z"/>
	<path class="st1" d="M1215.21,245.07c0,2.3,1.75,4.23,4.51,4.23c1.29,0,2.76-0.55,3.86-1.47l0.28,5.43
		c-1.56,1.56-4.14,2.48-6.44,2.48c-4.6,0-7.91-2.58-9.01-6.07c-4.78,2.76-16.47,6.07-28.98,6.07c-17.2,0-25.76-6.07-25.76-17.66
		c0-13.89,15.55-17.11,30.26-17.11c9.47,0,20.05,2.94,24.01,4.88c-0.18-10.03-7.27-16.37-26.03-16.37c-8.92,0-18.86,1.84-24.1,4.78
		l-2.21-5.34c5.61-3.77,16.37-5.52,26.86-5.52c22.54,0,32.75,7.63,32.75,23.55V245.07z M1207.76,231.28
		c-3.13-2.3-14.17-4.78-23.46-4.78c-13.71,0-23.27,3.13-23.27,11.68c0,8.09,6.9,11.87,19.78,11.87c10.3,0,22.9-2.85,26.95-4.97
		V231.28z"/>
	<path class="st1" d="M1295.6,254.64h-8v-21.16c0-19.59-11.77-23.82-24.56-23.82c-8.37,0-14.72,2.58-20.42,6.99v37.99h-8v-50.13
		h7.54v5.89c5.43-4.05,12.69-6.99,22.17-6.99c15.09,0,31.28,4.88,31.28,29.9V254.64z"/>
	<path class="st1" d="M1364.31,190.53h7.73v64.11h-7.54v-6.07c-3.96,3.5-12.88,7.17-23.09,7.17c-16.37,0-33.02-7.91-33.02-26.22
		c0-20.05,17.66-25.94,31.09-25.94c10.95,0,19.5,3.04,24.84,7.45V190.53z M1343.15,249.67c10.49,0,18.86-3.59,21.62-9.84V220.6
		c-3.04-7.17-11.87-10.95-22.72-10.95c-12.23,0-26.03,5.43-26.03,19.96C1316.01,243.69,1329.44,249.67,1343.15,249.67z"/>
	<path class="st1" d="M1449.02,231.55h-55.65c1.01,12.42,11.77,18.58,25.48,18.58c11.22,0,19.96-4.42,21.98-10.67h8.19
		c-2.3,9.11-15.18,16.28-29.99,16.28c-18.95,0-33.12-8.74-33.12-26.12c0-17.48,14.17-26.22,32.93-26.22
		c19.5,0,30.17,14.35,30.17,26.03V231.55z M1440.92,226.58v-0.37c0-7.54-8.92-17.11-22.17-17.11c-13.43,0-23.92,5.34-25.2,17.48
		H1440.92z"/>
	<path class="st1" d="M1497.95,210.76c-12.69,0.09-24.47,1.66-27.23,11.22v32.66h-8v-50.13h7.45v8.46
		c4.69-7.73,13.98-9.57,27.78-9.57V210.76z"/>
	<path class="st1" d="M1542.93,254.64h-7.91v-62.09h7.91V254.64z"/>
	<path class="st1" d="M1620.84,254.64h-8v-21.16c0-19.59-11.77-23.82-24.56-23.82c-8.37,0-14.72,2.58-20.42,6.99v37.99h-8v-50.13
		h7.54v5.89c5.43-4.05,12.69-6.99,22.17-6.99c15.09,0,31.28,4.88,31.28,29.9V254.64z"/>
	<path class="st1" d="M1697.09,254.64h-8v-21.16c0-19.59-11.77-23.82-24.56-23.82c-8.37,0-14.72,2.58-20.42,6.99v37.99h-8v-50.13
		h7.54v5.89c5.43-4.05,12.69-6.99,22.17-6.99c15.09,0,31.28,4.88,31.28,29.9V254.64z"/>
	<path class="st1" d="M1743.72,255.74c-18.67,0-33.39-8.74-33.39-26.22c0-17.39,14.72-26.12,33.39-26.12
		c18.77,0,33.39,8.74,33.39,26.12C1777.12,247,1762.49,255.74,1743.72,255.74z M1743.63,209.47c-14.17,0-25.94,6.44-25.94,20.05
		c0,13.71,11.77,20.14,25.94,20.14c14.35,0,25.94-6.44,25.94-20.14C1769.57,215.91,1757.98,209.47,1743.63,209.47z"/>
	<path class="st1" d="M1819.24,254.64h-8.09l-30.08-50.13h8.46l25.94,42.5l25.85-42.5h7.73L1819.24,254.64z"/>
	<path class="st1" d="M1914.99,245.07c0,2.3,1.75,4.23,4.51,4.23c1.29,0,2.76-0.55,3.86-1.47l0.28,5.43
		c-1.56,1.56-4.14,2.48-6.44,2.48c-4.6,0-7.91-2.58-9.01-6.07c-4.78,2.76-16.47,6.07-28.98,6.07c-17.2,0-25.76-6.07-25.76-17.66
		c0-13.89,15.55-17.11,30.26-17.11c9.47,0,20.05,2.94,24.01,4.88c-0.18-10.03-7.27-16.37-26.03-16.37c-8.92,0-18.86,1.84-24.1,4.78
		l-2.21-5.34c5.61-3.77,16.37-5.52,26.86-5.52c22.54,0,32.75,7.63,32.75,23.55V245.07z M1907.54,231.28
		c-3.13-2.3-14.17-4.78-23.46-4.78c-13.71,0-23.27,3.13-23.27,11.68c0,8.09,6.9,11.87,19.78,11.87c10.3,0,22.9-2.85,26.95-4.97
		V231.28z"/>
	<path class="st1" d="M1942.49,204.51h15.91v5.61h-15.91v28.15c0,8.55,3.22,10.49,8.46,10.49c3.4,0,6.81-1.01,8.09-2.67v6.26
		c-1.1,1.84-4.97,3.4-9.47,3.4c-10.85,0-14.63-5.8-14.63-17.29v-28.33h-6.81v-5.61h6.81v-10.3l7.54-2.58V204.51z"/>
	<path class="st1" d="M1975.61,198.9c-2.58,0-4.6-1.66-4.6-3.86c0-2.12,2.02-3.86,4.6-3.86c2.67,0,4.78,1.75,4.78,3.86
		C1980.39,197.24,1978.28,198.9,1975.61,198.9z M1979.65,254.64h-7.91v-50.13h7.91V254.64z"/>
	<path class="st1" d="M2028.22,255.74c-18.67,0-33.39-8.74-33.39-26.22c0-17.39,14.72-26.12,33.39-26.12
		c18.77,0,33.39,8.74,33.39,26.12C2061.61,247,2046.99,255.74,2028.22,255.74z M2028.13,209.47c-14.17,0-25.94,6.44-25.94,20.05
		c0,13.71,11.77,20.14,25.94,20.14c14.35,0,25.94-6.44,25.94-20.14C2054.07,215.91,2042.48,209.47,2028.13,209.47z"/>
	<path class="st1" d="M2136.39,254.64h-8v-21.16c0-19.59-11.77-23.82-24.56-23.82c-8.37,0-14.72,2.58-20.42,6.99v37.99h-8v-50.13
		h7.54v5.89c5.43-4.05,12.69-6.99,22.17-6.99c15.09,0,31.28,4.88,31.28,29.9V254.64z"/>
	<path class="st1" d="M2240.42,212.51c-3.5-8.46-13.71-14.9-26.58-14.9c-17.02,0-29.71,9.66-29.71,25.94
		c0,16.37,11.96,26.03,29.44,26.03c14.07,0,22.63-5.61,26.49-14.35l6.9,3.13c-4.97,11.68-16.19,18.31-34.03,18.31
		c-20.7,0-37.07-12.05-37.07-33.12c0-20.88,17.39-33.02,37.99-33.02c16.1,0,28.79,8.19,33.48,18.4L2240.42,212.51z"/>
	<path class="st1" d="M2321.36,231.55h-55.65c1.01,12.42,11.77,18.58,25.48,18.58c11.22,0,19.96-4.42,21.98-10.67h8.19
		c-2.3,9.11-15.18,16.28-29.99,16.28c-18.95,0-33.11-8.74-33.11-26.12c0-17.48,14.17-26.22,32.93-26.22
		c19.5,0,30.17,14.35,30.17,26.03V231.55z M2313.27,226.58v-0.37c0-7.54-8.92-17.11-22.17-17.11c-13.43,0-23.92,5.34-25.2,17.48
		H2313.27z"/>
	<path class="st1" d="M2396.05,254.64h-8v-21.16c0-19.59-11.77-23.82-24.56-23.82c-8.37,0-14.72,2.58-20.42,6.99v37.99h-8v-50.13
		h7.54v5.89c5.43-4.05,12.69-6.99,22.17-6.99c15.09,0,31.28,4.88,31.28,29.9V254.64z"/>
	<path class="st1" d="M2419.41,204.51h15.91v5.61h-15.91v28.15c0,8.55,3.22,10.49,8.46,10.49c3.4,0,6.81-1.01,8.09-2.67v6.26
		c-1.1,1.84-4.97,3.4-9.47,3.4c-10.85,0-14.63-5.8-14.63-17.29v-28.33h-6.81v-5.61h6.81v-10.3l7.54-2.58V204.51z"/>
	<path class="st1" d="M2482.6,210.76c-12.69,0.09-24.47,1.66-27.23,11.22v32.66h-8v-50.13h7.45v8.46
		c4.69-7.73,13.98-9.57,27.78-9.57V210.76z"/>
	<path class="st1" d="M2552.42,231.55h-55.65c1.01,12.42,11.77,18.58,25.48,18.58c11.22,0,19.96-4.42,21.98-10.67h8.19
		c-2.3,9.11-15.18,16.28-29.99,16.28c-18.95,0-33.11-8.74-33.11-26.12c0-17.48,14.17-26.22,32.93-26.22
		c19.5,0,30.17,14.35,30.17,26.03V231.55z M2544.32,226.58v-0.37c0-7.54-8.92-17.11-22.17-17.11c-13.43,0-23.92,5.34-25.2,17.48
		H2544.32z"/>
</g>
</svg>
